<svg width="400" height="400" viewBox="0 0 400 400" fill="none" xmlns="http://www.w3.org/2000/svg">
<circle cx="200" cy="200" r="200" fill="#0075C9"/>
<path d="M182.865 98.2813V31.1979H217.135V98.2813H182.865ZM283.854 140.208L259.792 115.781L307.187 68.3854L331.25 92.8125L283.854 140.208ZM301.719 217.135V182.865H368.802V217.135H301.719ZM307.552 331.25L260.156 283.49L284.583 259.063L331.979 306.823L307.552 331.25ZM116.146 140.208L68.75 92.8125L92.8125 69.1146L140.208 116.146L116.146 140.208ZM112.5 303.177H177.76C183.938 303.177 189.25 300.94 193.696 296.464C198.142 291.989 200.365 286.642 200.365 280.423C200.365 273.96 198.213 268.359 193.91 263.62C189.607 258.88 184.224 256.51 177.76 256.51H158.391L150.052 238.281C146.945 230.848 141.951 224.979 135.068 220.675C128.185 216.371 120.662 214.219 112.5 214.219C100.145 214.219 89.5819 218.462 80.8115 226.947C72.0413 235.433 67.6562 245.823 67.6562 258.119C67.6562 270.658 71.9805 281.302 80.6292 290.052C89.2781 298.802 99.9017 303.177 112.5 303.177ZM112.5 337.448C90.625 337.448 71.9704 329.731 56.5364 314.297C41.1024 298.863 33.3854 280.208 33.3854 258.333C33.3854 235.972 41.5277 217.196 57.8125 202.005C74.0972 186.814 93.6632 179.34 116.51 179.583C130.543 179.583 143.227 183.655 154.561 191.797C165.895 199.939 174.601 210.208 180.677 222.604C195.672 222.604 208.353 228.023 218.72 238.861C229.087 249.698 234.271 262.63 234.271 277.656C234.028 293.941 228.562 307.977 217.873 319.766C207.183 331.554 193.934 337.448 178.125 337.448H112.5ZM234.271 277.656C232.245 272.4 230.159 267.16 228.012 261.935C225.865 256.711 223.698 251.378 221.51 245.938C230.746 242.049 237.977 235.903 243.203 227.501C248.429 219.098 251.042 209.948 251.042 200.05C251.042 185.92 246.059 173.872 236.094 163.906C226.128 153.941 214.097 148.958 200 148.958C187.503 148.958 176.477 152.808 166.922 160.506C157.368 168.205 151.744 178.21 150.052 190.521C144.462 188.576 138.871 186.753 133.281 185.052C127.691 183.351 122.101 181.528 116.51 179.583C120.642 160.382 130.61 144.766 146.412 132.734C162.214 120.703 180.077 114.688 200 114.688C223.779 114.688 243.942 122.961 260.491 139.509C277.038 156.058 285.312 176.263 285.312 200.125C285.312 217.037 280.694 232.547 271.458 246.653C262.222 260.759 249.826 271.094 234.271 277.656Z" fill="#F9D100"/>
</svg>
